<svg xmlns="http://www.w3.org/2000/svg" version="1.1" xmlns:xlink="http://www.w3.org/1999/xlink" xmlns:svgjs="http://svgjs.dev/svgjs" width="1500" height="1500" viewBox="0 0 1500 1500"><rect width="1500" height="1500" fill="#000000"></rect><g transform="matrix(0.6666666666666666,0,0,0.6666666666666666,249.39393939393943,656.8933552492653)"><svg viewBox="0 0 396 73" data-background-color="#ffffff" preserveAspectRatio="xMidYMid meet" height="276" width="1500" xmlns="http://www.w3.org/2000/svg" xmlns:xlink="http://www.w3.org/1999/xlink"><g id="tight-bounds" transform="matrix(1,0,0,1,0.2400000000000091,0.43904927610671507)"><svg viewBox="0 0 395.52 72.12190144778656" height="72.12190144778656" width="395.52"><g><svg viewBox="0 0 503.6144538867022 91.83260520554609" height="72.12190144778656" width="395.52"><g transform="matrix(1,0,0,1,108.09445388670221,0)"><svg viewBox="0 0 395.52 91.83260520554609" height="91.83260520554609" width="395.52"><g id="textblocktransform"><svg viewBox="0 0 395.52 91.83260520554609" height="91.83260520554609" width="395.52" id="textblock"><g><svg viewBox="0 0 395.52 91.83260520554609" height="91.83260520554609" width="395.52"><g transform="matrix(1,0,0,1,0,0)"><svg width="395.52" viewBox="5.91 -36.23 200.72 46.61" height="91.83260520554609" data-palette-color="#000000"><path d="M25.51-26.49L25.51-22.41Q22.78-22.88 20.34-22.88L20.34-22.88Q16.41-22.88 13.99-19.92 11.57-16.97 11.57-12.4L11.57-12.4 11.57 0 7.18 0 7.18-17.11Q7.18-18.97 6.85-21.48 6.52-24 5.91-26.42L5.91-26.42 10.08-26.42Q11.06-23.05 11.25-20.31L11.25-20.31 11.38-20.31Q12.6-23.05 13.77-24.33 14.94-25.61 16.55-26.26 18.16-26.9 20.48-26.9L20.48-26.9Q23.02-26.9 25.51-26.49L25.51-26.49ZM56.71-12.28L37.86-12.28Q37.86-7.84 39.83-5.32 41.79-2.81 45.21-2.81L45.21-2.81Q47.73-2.81 49.62-3.89 51.51-4.98 52.15-6.86L52.15-6.86 56-5.76Q54.93-2.73 52.06-1.12 49.19 0.49 45.21 0.49L45.21 0.49Q39.45 0.49 36.35-3.1 33.25-6.69 33.25-13.38L33.25-13.38Q33.25-19.9 36.29-23.4 39.33-26.9 45.07-26.9L45.07-26.9Q50.8-26.9 53.76-23.41 56.71-19.92 56.71-12.87L56.71-12.87 56.71-12.28ZM45.11-23.66L45.11-23.66Q41.84-23.66 39.94-21.52 38.03-19.38 37.91-15.65L37.91-15.65 52.17-15.65Q51.49-23.66 45.11-23.66ZM86.88-2.71L86.88-2.71Q87.52-2.71 88.33-2.88L88.33-2.88 88.33-0.15Q86.66 0.24 84.93 0.24L84.93 0.24Q82.49 0.24 81.38-1.04 80.27-2.32 80.12-5.05L80.12-5.05 79.98-5.05Q78.39-2.1 76.23-0.81 74.07 0.49 70.89 0.49L70.89 0.49Q67.04 0.49 65.08-1.61 63.13-3.71 63.13-7.37L63.13-7.37Q63.13-15.89 74.21-16.02L74.21-16.02 79.98-16.11 79.98-17.55Q79.98-20.75 78.68-22.16 77.39-23.56 74.56-23.56L74.56-23.56Q71.67-23.56 70.41-22.53 69.14-21.51 68.89-19.36L68.89-19.36 64.3-19.78Q65.42-26.9 74.63-26.9L74.63-26.9Q79.51-26.9 81.97-24.62 84.42-22.34 84.42-18.02L84.42-18.02 84.42-6.64Q84.42-4.69 84.93-3.7 85.44-2.71 86.88-2.71ZM72.02-2.86L72.02-2.86Q74.36-2.86 76.17-3.98 77.97-5.1 78.97-6.98 79.98-8.86 79.98-10.86L79.98-10.86 79.98-13.04 75.34-12.94Q72.46-12.89 70.94-12.3 69.43-11.72 68.59-10.51 67.74-9.3 67.74-7.3L67.74-7.3Q67.74-5.3 68.83-4.08 69.92-2.86 72.02-2.86ZM107.98-36.23L107.98-3.47 117.25-3.47 117.25 0 93.28 0 93.28-3.47 103.58-3.47 103.58-32.76 96.53-32.76 96.53-36.23 107.98-36.23ZM137.07 0L132.97 0 132.97-16.75Q132.97-20.51 132.38-22.01 131.78-23.51 130.19-23.51L130.19-23.51Q128.63-23.51 127.66-21.17 126.7-18.82 126.7-14.82L126.7-14.82 126.7 0 122.57 0 122.57-20.78Q122.57-25.39 122.43-26.42L122.43-26.42 126.06-26.42 126.21-23.32 126.21-22.14 126.26-22.14Q127.09-24.63 128.36-25.77 129.63-26.9 131.53-26.9L131.53-26.9Q133.68-26.9 134.74-25.73 135.81-24.56 136.27-22.12L136.27-22.12 136.32-22.12Q137.29-24.71 138.65-25.81 140-26.9 142.08-26.9L142.08-26.9Q144.96-26.9 146.21-24.8 147.45-22.71 147.45-17.6L147.45-17.6 147.45 0 143.35 0 143.35-16.75Q143.35-20.51 142.75-22.01 142.15-23.51 140.57-23.51L140.57-23.51Q138.95-23.51 138.01-21.46 137.07-19.41 137.07-15.31L137.07-15.31 137.07 0ZM176.89-2.71L176.89-2.71Q177.53-2.71 178.33-2.88L178.33-2.88 178.33-0.15Q176.67 0.24 174.94 0.24L174.94 0.24Q172.5 0.24 171.39-1.04 170.28-2.32 170.13-5.05L170.13-5.05 169.98-5.05Q168.4-2.1 166.24-0.81 164.07 0.49 160.9 0.49L160.9 0.49Q157.04 0.49 155.09-1.61 153.14-3.71 153.14-7.37L153.14-7.37Q153.14-15.89 164.22-16.02L164.22-16.02 169.98-16.11 169.98-17.55Q169.98-20.75 168.69-22.16 167.39-23.56 164.56-23.56L164.56-23.56Q161.68-23.56 160.41-22.53 159.14-21.51 158.9-19.36L158.9-19.36 154.31-19.78Q155.43-26.9 164.64-26.9L164.64-26.9Q169.52-26.9 171.97-24.62 174.43-22.34 174.43-18.02L174.43-18.02 174.43-6.64Q174.43-4.69 174.94-3.7 175.45-2.71 176.89-2.71ZM162.02-2.86L162.02-2.86Q164.37-2.86 166.17-3.98 167.98-5.1 168.98-6.98 169.98-8.86 169.98-10.86L169.98-10.86 169.98-13.04 165.34-12.94Q162.46-12.89 160.95-12.3 159.44-11.72 158.59-10.51 157.75-9.3 157.75-7.3L157.75-7.3Q157.75-5.3 158.84-4.08 159.92-2.86 162.02-2.86ZM206.63-13.33L206.63-13.33Q206.63 0.49 197.06 0.49L197.06 0.49Q191.05 0.49 188.97-4L188.97-4 188.85-4Q188.95-3.81 188.95 0.05L188.95 0.05 188.95 10.38 184.53 10.38 184.53-20.95Q184.53-25.1 184.38-26.42L184.38-26.42 188.66-26.42Q188.68-26.32 188.73-25.7 188.78-25.07 188.84-23.86 188.9-22.66 188.9-22.07L188.9-22.07 189-22.07Q190.22-24.63 192.11-25.79 194-26.95 197.06-26.95L197.06-26.95Q201.89-26.95 204.26-23.62 206.63-20.29 206.63-13.33ZM202.08-13.33L202.08-13.33Q202.08-18.85 200.6-21.2 199.11-23.56 195.91-23.56L195.91-23.56Q192.22-23.56 190.59-20.89 188.95-18.21 188.95-12.79L188.95-12.79Q188.95-7.59 190.59-5.18 192.22-2.76 195.86-2.76L195.86-2.76Q199.11-2.76 200.6-5.22 202.08-7.69 202.08-13.33Z" opacity="1" transform="matrix(1,0,0,1,0,0)" fill="#ffffff" class="wordmark-text-0" data-fill-palette-color="primary" id="text-0"></path></svg></g></svg></g></svg></g></svg></g><g transform="matrix(1,0,0,1,0,4.669687974702015)"><svg viewBox="0 0 86.41497978019771 82.49322925614206" height="82.49322925614206" width="86.41497978019771"><g><svg xmlns="http://www.w3.org/2000/svg" xmlns:xlink="http://www.w3.org/1999/xlink" version="1.1" x="0" y="0" viewBox="10.79 8.615 83.59476121400732 79.801" enable-background="new 0 0 100 100" xml:space="preserve" height="82.49322925614206" width="86.41497978019771" class="icon-icon-0" data-fill-palette-color="accent" id="icon-0"><g fill="#000000" data-fill-palette-color="accent"><path d="M60.222 47.125A9.1 9.1 0 0 0 62.288 50.273C61.646 49 60.966 47.982 60.222 47.125M60.222 47.125A9.1 9.1 0 0 0 62.288 50.273C61.646 49 60.966 47.982 60.222 47.125M60.222 47.125A9.1 9.1 0 0 0 62.288 50.273C61.646 49 60.966 47.982 60.222 47.125M60.222 47.125A9.1 9.1 0 0 0 62.288 50.273C61.646 49 60.966 47.982 60.222 47.125" fill="#ffffff" data-fill-palette-color="accent"></path><path d="M94.288 38.87C93.675 46.309 90.193 53.062 84.501 57.876A27.96 27.96 0 0 1 70.657 64.184L70.663 64.172 70.675 64.11C70.821 63.401 71.058 62.223 71.118 60.905A24.8 24.8 0 0 0 82.467 55.471 24.7 24.7 0 0 0 88.843 47.176C87.896 47.035 87.202 46.658 86.73 46.246 84.371 44.202 84.923 40.107 85.16 38.896 85.379 37.765 85.115 37.247 84.451 36.002 84.045 35.213 83.521 34.21 83.047 32.82 81.651 28.636 83.731 26.119 86.116 25.161 86.635 24.953 87.35 24.689 88.133 24.547A25.5 25.5 0 0 0 85.363 20.548C85.16 20.311 84.939 20.109 84.749 19.884 84.168 21.382 82.986 22.925 80.818 24.057 75.855 26.608 75.89 29.204 75.941 32.494V33.344C75.941 34.645 75.941 36.453 75.733 38.328A8.96 8.96 0 0 0 70.714 35.09 9.3 9.3 0 0 0 68.608 34.842 8.9 8.9 0 0 0 63.894 36.194 9 9 0 0 0 62.611 37.145 8.7 8.7 0 0 0 60.741 39.482C60.426 37.984 60.369 36.317 60.594 34.538 60.815 32.838 59.918 30.573 58.309 28.794 57.351 27.741 56.438 27.46 55.038 27.031 54.017 26.716 52.852 26.355 51.483 25.645 49.169 24.451 48.819 21.54 49.028 18.961 44.303 23.629 41.819 29.835 41.707 36.115 41.909 36.38 42.102 36.627 42.292 36.857A10 10 0 0 0 40.862 36.553 12 12 0 0 0 39.364 36.452H39.234A8 8 0 0 0 38.524 36.485C38.553 28.585 41.909 20.734 48.397 15.243A27.96 27.96 0 0 1 66.429 8.615C74.68 8.615 82.451 12.219 87.756 18.504 92.587 24.199 94.901 31.435 94.288 38.87" fill="#ffffff" data-fill-palette-color="accent"></path><path d="M62.717 51.168L62.21 53.286 62.046 53.967C61.94 54.012 61.839 54.058 61.732 54.103 61.517 54.193 61.308 54.3 61.095 54.429 59.396 55.426 58.296 57.161 57.749 59.734A131 131 0 0 0 57.311 61.936L57.255 62.213C57.209 62.432 57.163 62.669 57.124 62.905A27.7 27.7 0 0 1 46.509 56.136C46.521 56.114 46.53 56.085 46.548 56.057 46.724 55.719 46.892 55.404 47.071 55.083L47.106 55.01C48.029 53.308 49.077 51.371 49.443 48.882 49.526 48.24 49.567 47.609 49.561 46.985 49.526 44.67 48.885 42.564 47.758 40.852 48.084 40.953 48.428 41.049 48.789 41.15 49.797 41.432 50.945 41.764 52.314 42.317 55.822 43.758 58.254 44.856 60.22 47.126 60.964 47.982 61.645 49.001 62.286 50.274 62.435 50.561 62.576 50.859 62.717 51.168" fill="#ffffff" data-fill-palette-color="accent"></path><path d="M21.475 87.215L23.876 76.638A1.403 1.403 0 1 0 21.081 76.409L18.655 87.215z" fill="#ffffff" data-fill-palette-color="accent"></path><path d="M75.308 40.733A9 9 0 0 0 74.859 39.907C74.789 39.773 74.706 39.658 74.623 39.536A7.25 7.25 0 0 0 70.322 36.605 7.18 7.18 0 0 0 64.787 37.501 7.18 7.18 0 0 0 61.553 41.84 2 2 0 0 0 61.495 42.039 7.2 7.2 0 0 0 61.323 44.273C61.335 44.567 61.374 44.855 61.432 45.143A7.4 7.4 0 0 0 64.721 49.936L63.857 53.552 63.684 54.242 63.46 55.19A4 4 0 0 0 62.423 55.516 5 5 0 0 0 61.956 55.753C60.67 56.507 59.839 57.884 59.403 59.951 59.307 60.386 59.133 61.263 58.917 62.402 58.858 62.684 58.802 62.985 58.743 63.292 58.167 66.268 57.374 70.447 56.81 73.41 55.549 71.26 53.943 68.354 52.907 65.948 51.537 62.736 48.068 61.455 45.29 60.425 44.817 60.258 44.37 60.092 43.952 59.926 43.684 59.817 43.645 59.708 43.62 59.638 43.46 59.209 43.717 58.332 43.966 57.788 43.986 57.756 43.998 57.725 44.011 57.692 44.132 57.468 44.177 57.25 44.183 57.02 44.433 56.367 44.734 55.747 45.054 55.138 45.138 54.984 45.214 54.831 45.29 54.684 45.388 54.498 45.489 54.319 45.592 54.133 46.495 52.469 47.443 50.729 47.768 48.501 47.845 47.963 47.876 47.419 47.871 46.869 47.819 43.177 45.92 39.547 41.965 38.389A10 10 0 0 0 40.64 38.095 10 10 0 0 0 39.366 38.012H39.258C39.021 38.012 38.797 38.031 38.567 38.044A7.77 7.77 0 0 0 33.933 40.118C32.275 41.647 31.226 43.855 30.913 46.147 30.604 48.374 31.04 50.301 31.462 52.163 31.835 53.821 32.204 55.395 32.07 57.2H32.089C32.032 57.981 31.86 58.762 31.653 59.005 27.629 59.063 22.342 59.793 19.841 62.954 17.236 66.231 12.82 80.26 10.892 86.877 10.855 86.999 10.824 87.107 10.79 87.216H13.677C15.341 81.513 19.808 67.459 22.017 64.675 23.451 62.863 26.919 61.833 31.77 61.781 33.742 61.762 34.906 59.81 34.88 56.572 34.88 56.431 34.855 56.31 34.817 56.181 34.785 54.453 34.446 52.911 34.144 51.529 33.748 49.839 33.376 48.258 33.613 46.524A8 8 0 0 1 34.535 43.772C35.412 42.198 36.871 40.981 38.861 40.809 39.027 40.796 39.188 40.789 39.361 40.789 39.642 40.789 39.93 40.802 40.236 40.847 43.125 41.243 44.602 43.304 45.006 45.602 45.158 46.435 45.173 47.298 45.051 48.124 44.84 49.666 44.18 50.978 43.457 52.31 43.373 52.47 43.29 52.623 43.207 52.777 43.117 52.944 43.021 53.11 42.932 53.282 42.498 54.089 42.055 54.959 41.678 55.912 41.543 56.251 41.415 56.603 41.299 56.974 41.293 57.012 41.275 57.045 41.262 57.083 40.936 57.909 40.545 59.317 41.012 60.583 41.326 61.454 41.998 62.125 42.92 62.49 43.361 62.676 43.842 62.855 44.334 63.04 46.734 63.917 49.454 64.922 50.355 67.034 52.334 71.636 56.161 77.722 56.321 77.972A1.45 1.45 0 0 0 57.524 78.625C57.601 78.625 57.677 78.612 57.761 78.605 58.31 78.49 58.751 78.055 58.855 77.485 58.88 77.376 60.474 68.96 61.454 63.923 61.574 63.264 61.697 62.662 61.799 62.15A38 38 0 0 1 62.069 60.806C62.081 60.69 62.106 60.595 62.127 60.512 62.338 59.481 62.651 58.778 63.067 58.381A0.84 0.84 0 0 1 63.374 58.138C63.663 57.965 64.026 57.882 64.47 57.882 64.917 57.882 65.443 57.965 66.037 58.151A0.5 0.5 0 0 1 66.237 58.259C66.244 58.265 66.244 58.265 66.25 58.279 66.422 58.433 66.62 58.797 66.672 59.571 66.697 59.924 66.691 60.364 66.647 60.928 66.633 61.024 66.633 61.12 66.621 61.222 66.551 61.76 66.449 62.399 66.296 63.142 66.238 63.411 66.153 63.827 66.046 64.364 65.962 64.806 65.86 65.324 65.745 65.907 64.855 70.464 63.255 78.662 62.296 82.246H62.302C61.771 83.839 60.624 85.663 58.999 85.663 53.571 85.663 51.134 82.258 46.948 75.73A1.39 1.39 0 0 0 45.558 75.115C45.014 75.212 44.573 75.615 44.445 76.152L41.821 87.212H44.651L46.385 79.916C49.68 84.838 52.886 88.416 58.998 88.416 62.319 88.416 64.508 85.222 65.213 82.055 65.219 82.01 65.226 81.971 65.233 81.927 65.233 81.92 65.239 81.913 65.239 81.907 66.238 77.856 67.645 70.624 68.471 66.425 68.644 65.536 68.791 64.787 68.893 64.256 68.938 64.032 68.976 63.847 69.014 63.705 69.129 63.123 69.334 62.138 69.417 61.043 69.449 60.626 69.463 60.185 69.449 59.75V59.705C69.398 58.342 69.058 57.005 68.086 56.166L68.15 55.872 69.315 51.015A7 7 0 0 0 71.119 50.611 7.2 7.2 0 0 0 75.753 45.427 7.3 7.3 0 0 0 75.308 40.733M73.048 44.791A4 4 0 0 1 72.786 45.553 4.46 4.46 0 0 1 70.999 47.608 4.36 4.36 0 0 1 69.021 48.267C68.895 48.28 68.758 48.287 68.631 48.287 68.272 48.287 67.92 48.248 67.569 48.172A4.57 4.57 0 0 1 64.337 45.266 4.5 4.5 0 0 1 64.191 42.687 4.55 4.55 0 0 1 66.24 39.864 4.55 4.55 0 0 1 68.625 39.192C68.972 39.192 69.33 39.231 69.676 39.307A4.48 4.48 0 0 1 72.491 41.362 4.5 4.5 0 0 1 73.048 44.791" fill="#ffffff" data-fill-palette-color="accent"></path></g></svg></g></svg></g></svg></g><defs></defs></svg><rect width="395.52" height="72.12190144778656" fill="none" stroke="none" visibility="hidden"></rect></g></svg></g></svg>